<?xml version="1.0" encoding="iso-8859-1"?>
<!-- Uploaded to: SVG Repo, www.svgrepo.com, Generator: SVG Repo Mixer Tools -->
<svg height="800px" width="800px" version="1.1" id="Layer_1" xmlns="http://www.w3.org/2000/svg" xmlns:xlink="http://www.w3.org/1999/xlink" 
	 viewBox="0 0 512 512" xml:space="preserve">
<path style="fill:#8BC0FF;" d="M422.957,0H256v33.391h166.957c14.767,0,28.715,5.816,39.276,16.376
	c10.561,10.561,16.376,24.509,16.376,39.276v333.913c0,14.767-5.816,28.715-16.376,39.276
	c-10.561,10.561-24.509,16.376-39.276,16.376H256V512h166.957C471.93,512,512,471.93,512,422.957V89.043
	C512,40.07,471.93,0,422.957,0z"/>
<path style="fill:#BFDCFF;" d="M89.043,478.609c-14.767,0-28.715-5.816-39.276-16.376c-10.561-10.561-16.376-24.509-16.376-39.276
	V89.043c0-14.767,5.816-28.715,16.376-39.276s24.509-16.376,39.276-16.376H256V0H89.043C40.07,0,0,40.07,0,89.043v333.913
	C0,471.93,40.07,512,89.043,512H256v-33.391H89.043z"/>
<path style="fill:#FFD460;" d="M213.408,153.174V86.307l-55.394-66.867C95.438,45.389,45.39,95.437,19.44,158.013l66.867,55.394
	h66.867C164.471,186.234,186.234,164.471,213.408,153.174z"/>
<path style="fill:#FF562B;" d="M492.561,158.013l-133.734,55.394c5.458,13.127,8.478,27.513,8.478,42.593s-3.02,29.466-8.478,42.593
	l133.734,55.394C505.078,323.802,512,290.711,512,256S505.078,188.198,492.561,158.013z"/>
<path style="fill:#FFD460;" d="M153.174,298.593H86.307l-66.867,55.394c25.949,62.576,75.997,112.624,138.574,138.574l55.394-66.867
	v-66.867C186.234,347.529,164.471,325.766,153.174,298.593z"/>
<g>
	<path style="fill:#FF7855;" d="M144.696,256c0-15.08,3.02-29.466,8.478-42.593L19.439,158.013C6.922,188.198,0,221.289,0,256
		s6.922,67.802,19.439,97.987l133.734-55.394C147.715,285.466,144.696,271.079,144.696,256z"/>
	<path style="fill:#FF7855;" d="M213.408,358.826L158.014,492.56C188.198,505.078,221.289,512,256,512l22.261-72.348L256,367.304
		C240.92,367.304,226.534,364.285,213.408,358.826z"/>
</g>
<g>
	<path style="fill:#FFA418;" d="M298.592,153.174V86.307l55.394-66.867C416.562,45.389,466.61,95.437,492.56,158.013l-66.867,55.394
		h-66.867C347.529,186.234,325.766,164.471,298.592,153.174z"/>
	<path style="fill:#FFA418;" d="M358.826,298.593h66.867l66.867,55.394c-25.949,62.576-75.997,112.624-138.574,138.574
		l-55.394-66.867v-66.867C325.766,347.529,347.529,325.766,358.826,298.593z"/>
</g>
<g>
	<path style="fill:#FF562B;" d="M367.304,256c0-15.08-3.02-29.466-8.478-42.593l133.734-55.394C505.078,188.198,512,221.289,512,256
		s-6.922,67.802-19.439,97.987l-133.734-55.394C364.285,285.466,367.304,271.079,367.304,256z"/>
	<path style="fill:#FF562B;" d="M256,367.304V512c34.711,0,67.802-6.922,97.987-19.439l-55.394-133.733
		C285.466,364.285,271.079,367.304,256,367.304z"/>
</g>
<path style="fill:#FF7855;" d="M158.013,19.439l55.394,133.733c13.127-5.457,27.513-8.477,42.593-8.477l22.261-72.348L256,0
	C221.289,0,188.198,6.922,158.013,19.439z"/>
<path style="fill:#FF562B;" d="M353.987,19.439C323.802,6.922,290.711,0,256,0v144.696c15.08,0,29.466,3.02,42.592,8.478
	L353.987,19.439z"/>
</svg>